<mxfile host="app.diagrams.net" modified="2022-09-02T06:51:36.861Z" agent="5.0 (Windows NT 10.0; Win64; x64) AppleWebKit/537.36 (KHTML, like Gecko) Chrome/104.0.0.0 Safari/537.36" etag="eDOlo1pxjP1xSjJnxzBH" version="20.2.7" type="github">
  <diagram id="qopNcwNLVC1ksKuIdmXW" name="第 1 页">
    <mxGraphModel dx="813" dy="757" grid="1" gridSize="10" guides="1" tooltips="1" connect="1" arrows="1" fold="1" page="1" pageScale="1" pageWidth="1169" pageHeight="827" math="0" shadow="0">
      <root>
        <mxCell id="0" />
        <mxCell id="1" parent="0" />
        <mxCell id="nVqcEutKuNTegrcjTOpu-4" value="&lt;div style=&quot;box-sizing:border-box;width:100%;background:#e4e4e4;padding:2px;&quot;&gt;rn_project&lt;/div&gt;&lt;table style=&quot;width:100%;font-size:1em;&quot; cellpadding=&quot;2&quot; cellspacing=&quot;0&quot;&gt;&lt;tbody&gt;&lt;tr&gt;&lt;td&gt;PK&lt;/td&gt;&lt;td&gt;project_id&lt;/td&gt;&lt;/tr&gt;&lt;tr&gt;&lt;td&gt;&lt;br&gt;&lt;/td&gt;&lt;td&gt;project_code&lt;/td&gt;&lt;/tr&gt;&lt;tr&gt;&lt;td&gt;&lt;/td&gt;&lt;td&gt;project_name&lt;br&gt;project_comment&lt;br&gt;&lt;span style=&quot;font-family: Arial, sans-serif; font-size: 13px; background-color: rgb(255, 255, 255);&quot;&gt;project_principal_name&lt;br&gt;&lt;/span&gt;project_principal_phone&lt;br&gt;create_time&lt;br&gt;create_id&lt;br&gt;modify_id&lt;br&gt;modify_time&lt;br&gt;status&lt;br&gt;reserved&lt;br&gt;ranking&lt;br&gt;reversion&lt;br&gt;deleted&lt;br&gt;version&lt;br&gt;&lt;br&gt;&lt;/td&gt;&lt;/tr&gt;&lt;/tbody&gt;&lt;/table&gt;" style="verticalAlign=top;align=left;overflow=fill;html=1;" parent="1" vertex="1">
          <mxGeometry x="30" y="20" width="300" height="270" as="geometry" />
        </mxCell>
        <mxCell id="PQHih6_ASScDzGET-Ab5-1" value="&lt;div style=&quot;box-sizing:border-box;width:100%;background:#e4e4e4;padding:2px;&quot;&gt;rn_channel&lt;/div&gt;&lt;table style=&quot;width:100%;font-size:1em;&quot; cellpadding=&quot;2&quot; cellspacing=&quot;0&quot;&gt;&lt;tbody&gt;&lt;tr&gt;&lt;td&gt;PK&lt;/td&gt;&lt;td&gt;channel_id&lt;/td&gt;&lt;/tr&gt;&lt;tr&gt;&lt;td&gt;&lt;br&gt;&lt;/td&gt;&lt;td&gt;channel_code&lt;/td&gt;&lt;/tr&gt;&lt;tr&gt;&lt;td&gt;&lt;/td&gt;&lt;td&gt;channel_name&lt;br&gt;channel_comment&lt;br&gt;channel&lt;span style=&quot;font-family: Arial, sans-serif; font-size: 13px; background-color: rgb(255, 255, 255);&quot;&gt;_principal_name&lt;br&gt;&lt;/span&gt;channel_principal_phone&lt;br&gt;create_id&lt;br&gt;create_time&lt;br&gt;modify_id&lt;br&gt;modify_time&lt;br&gt;status&lt;br&gt;reserved&lt;br&gt;ranking&lt;br&gt;reversion&lt;br&gt;deleted&lt;br&gt;version&lt;br&gt;&lt;br&gt;&lt;/td&gt;&lt;/tr&gt;&lt;/tbody&gt;&lt;/table&gt;" style="verticalAlign=top;align=left;overflow=fill;html=1;" vertex="1" parent="1">
          <mxGeometry x="740" y="20" width="300" height="270" as="geometry" />
        </mxCell>
        <mxCell id="PQHih6_ASScDzGET-Ab5-2" value="&lt;div style=&quot;box-sizing:border-box;width:100%;background:#e4e4e4;padding:2px;&quot;&gt;rn_project_channel&lt;br&gt;&lt;/div&gt;&lt;table style=&quot;width:100%;font-size:1em;&quot; cellpadding=&quot;2&quot; cellspacing=&quot;0&quot;&gt;&lt;tbody&gt;&lt;tr&gt;&lt;td&gt;PK&lt;/td&gt;&lt;td&gt;project_channel_id&lt;br&gt;project_code&lt;br&gt;project_name&lt;br&gt;project_principal_name&lt;br&gt;project_principal_phone&lt;br&gt;&lt;/td&gt;&lt;/tr&gt;&lt;tr&gt;&lt;td&gt;&lt;br&gt;&lt;/td&gt;&lt;td&gt;channel_code&lt;/td&gt;&lt;/tr&gt;&lt;tr&gt;&lt;td&gt;&lt;/td&gt;&lt;td&gt;channel_name&lt;br&gt;channel&lt;span style=&quot;font-family: Arial, sans-serif; font-size: 13px; background-color: rgb(255, 255, 255);&quot;&gt;_principal_name&lt;br&gt;&lt;/span&gt;channel_principal_phone&lt;br&gt;enable&lt;br&gt;create_time&lt;br&gt;create_id&lt;br&gt;modify_id&lt;br&gt;modify_time&lt;br&gt;status&lt;br&gt;reserved&lt;br&gt;ranking&lt;br&gt;reversion&lt;br&gt;deleted&lt;br&gt;version&lt;br&gt;&lt;br&gt;&lt;/td&gt;&lt;/tr&gt;&lt;/tbody&gt;&lt;/table&gt;" style="verticalAlign=top;align=left;overflow=fill;html=1;" vertex="1" parent="1">
          <mxGeometry x="390" y="20" width="300" height="320" as="geometry" />
        </mxCell>
        <mxCell id="PQHih6_ASScDzGET-Ab5-8" value="&lt;div style=&quot;box-sizing:border-box;width:100%;background:#e4e4e4;padding:2px;&quot;&gt;rn_service_code_config&lt;/div&gt;&lt;table style=&quot;width:100%;font-size:1em;&quot; cellpadding=&quot;2&quot; cellspacing=&quot;0&quot;&gt;&lt;tbody&gt;&lt;tr&gt;&lt;td&gt;PK&lt;/td&gt;&lt;td&gt;config_id&lt;/td&gt;&lt;/tr&gt;&lt;tr&gt;&lt;td&gt;&lt;br&gt;&lt;/td&gt;&lt;td&gt;service_code&lt;/td&gt;&lt;/tr&gt;&lt;tr&gt;&lt;td&gt;&lt;/td&gt;&lt;td&gt;service_name&lt;br&gt;channel_code&lt;br&gt;content&lt;br&gt;content_json&lt;br&gt;&lt;span style=&quot;font-family: Arial, sans-serif; font-size: 13px; background-color: rgb(255, 255, 255);&quot;&gt;md5&lt;br&gt;&lt;/span&gt;extend_param&lt;br&gt;create_id&lt;br&gt;create_time&lt;br&gt;modify_id&lt;br&gt;modify_time&lt;br&gt;status&lt;br&gt;reserved&lt;br&gt;ranking&lt;br&gt;reversion&lt;br&gt;deleted&lt;br&gt;version&lt;br&gt;&lt;br&gt;&lt;/td&gt;&lt;/tr&gt;&lt;/tbody&gt;&lt;/table&gt;" style="verticalAlign=top;align=left;overflow=fill;html=1;" vertex="1" parent="1">
          <mxGeometry x="30" y="340" width="300" height="290" as="geometry" />
        </mxCell>
        <mxCell id="PQHih6_ASScDzGET-Ab5-9" value="&lt;div style=&quot;box-sizing:border-box;width:100%;background:#e4e4e4;padding:2px;&quot;&gt;rn_service_code_data&lt;/div&gt;&lt;table style=&quot;width:100%;font-size:1em;&quot; cellpadding=&quot;2&quot; cellspacing=&quot;0&quot;&gt;&lt;tbody&gt;&lt;tr&gt;&lt;td&gt;PK&lt;/td&gt;&lt;td&gt;&lt;br&gt;&lt;/td&gt;&lt;/tr&gt;&lt;tr&gt;&lt;td&gt;&lt;br&gt;&lt;/td&gt;&lt;td&gt;service_code&lt;/td&gt;&lt;/tr&gt;&lt;tr&gt;&lt;td&gt;&lt;/td&gt;&lt;td&gt;&lt;br&gt;channel_code&lt;br&gt;&lt;br&gt;content&lt;br&gt;content_json&lt;br&gt;&lt;span style=&quot;font-family: Arial, sans-serif; font-size: 13px; background-color: rgb(255, 255, 255);&quot;&gt;md5&lt;br&gt;&lt;/span&gt;extend_param&lt;br&gt;create_id&lt;br&gt;create_time&lt;br&gt;modify_id&lt;br&gt;modify_time&lt;br&gt;status&lt;br&gt;reserved&lt;br&gt;ranking&lt;br&gt;reversion&lt;br&gt;deleted&lt;br&gt;version&lt;br&gt;&lt;br&gt;&lt;/td&gt;&lt;/tr&gt;&lt;/tbody&gt;&lt;/table&gt;" style="verticalAlign=top;align=left;overflow=fill;html=1;" vertex="1" parent="1">
          <mxGeometry x="380" y="370" width="300" height="290" as="geometry" />
        </mxCell>
      </root>
    </mxGraphModel>
  </diagram>
</mxfile>
